/* XPM */
static char *_95fedac663c4ba683797dcc2ef0d486MsG2inzzp7I6ItEN[] = {
/* columns rows colors chars-per-pixel */
"64 64 12 1",
"  c None",
". c #412320",
"X c #59302C",
"o c #5C322D",
"O c #6D3B36",
"+ c #434F65",
"@ c #9A544C",
"# c #6F7F9F",
"$ c gray55",
"% c #8895AF",
"& c gray68",
"* c #A6B0C4",
/* pixels */
"                          %%%%%%%%%%%%                          ",
"                          %%%%%%%%%%%%                          ",
"                          %%%%%%%%%%%%                          ",
"                          %%%%%%%%%%%%                          ",
"              %%%%%%%%%%++%%%%%%%%%%%%++%%%%%%%%%%              ",
"              %%%%%%%%%%++%%%%%%%%%%%%++%%%%%%%%%%              ",
"              %%%%%%%%%%++************++%%%%%%%%%%              ",
"              %%%%%%%%%%++************++%%%%%%%%%%              ",
"++%%%%%%%%%%++%%%%%%%%%%++############++%%%%%%%%%%++%%%%%%%%%%++",
"++%%%%%%%%%%++%%%%%%%%%%++############++%%%%%%%%%%++%%%%%%%%%%++",
"++%%%%%%%%%%++**********++############++**********++%%%%%%%%%%++",
"++%%%%%%%%%%++**********++############++**********++%%%%%%%%%%++",
"++%%%%%%%%%%++##########++############++##########++%%%%%%%%%%++",
"++%%%%%%%%%%++##########++############++##########++%%%%%%%%%%++",
"++**********++##########++############++##########++**********++",
"++**********++##########++############++##########++**********++",
"++##########++##########................##########++##########++",
"++##########++##########................##########++##########++",
"++##########........................................##########++",
"++##########........................................##########++",
"++##########........................................##########++",
"++##########........................................##########++",
"++++++++++++............XX..XXXXXXXX..XX............++++++++++++",
"++++++++++++............XX..XXXXXXXX..XX............++++++++++++",
"++**********XXXXXX..XXXXXX..XXXXXXXX..XXXXXX..XXXXXX**********++",
"++**********XXXXXX..XXXXXX..XXXXXXXX..XXXXXX..XXXXXX**********++",
"++##########XXXXXX..OOOOOOooOOOOOOOOooOOOOOO..XXXXXX##########++",
"++##########XXXXXX..OOOOOOooOOOOOOOOooOOOOOO..XXXXXX##########++",
"++##########OOOOOOooOOOOOOooOOOOOOOOooOOOOOOooOOOOOO##########++",
"++##########OOOOOOooOOOOOOooOOOOOOOOooOOOOOOooOOOOOO##########++",
"++##########$$$$&&ooOOOOOOooOOOOOOOOooOOOOOOooOOOOOO##########++",
"++##########$$$$&&ooOOOOOOooOOOOOOOOooOOOOOOooOOOOOO##########++",
"++##########$$&&&&ooOOOOOOooOOOOOOOOooOOOOOOooOOOOOO##########++",
"++##########$$&&&&ooOOOOOOooOOOOOOOOooOOOOOOooOOOOOO##########++",
"++++++++++++OOOOOOooOOOOOOooOOOOOOOOooOOOOOOooOOOOOO++++++++++++",
"++++++++++++OOOOOOooOOOOOOooOOOOOOOOooOOOOOOooOOOOOO++++++++++++",
"++**********OOOOOOooOOOOOOooOOOOOOOOooOOOOOOooOO&&OO**********++",
"++**********OOOOOOooOOOOOOooOOOOOOOOooOOOOOOooOO&&OO**********++",
"++##########OOOOOOooOOOOOOooOOOOOOOOooOOOOOOooOO&&OO##########++",
"++##########OOOOOOooOOOOOOooOOOOOOOOooOOOOOOooOO&&OO##########++",
"++##########OOOOOOooOOOOOOooOOOOOOOOooOOOOOOooOO&&OO##########++",
"++##########OOOOOOooOOOOOOooOOOOOOOOooOOOOOOooOO&&OO##########++",
"++##########OOOOOOooOOOOOOooOOOOOOOOooOOOOOOooOO&&OO##########++",
"++##########OOOOOOooOOOOOOooOOOOOOOOooOOOOOOooOO&&OO##########++",
"++##########OOOOOOooOOOOOOooOOOOOOOOooOOOOOOooOO&&OO##########++",
"++##########OOOOOOooOOOOOOooOOOOOOOOooOOOOOOooOO&&OO##########++",
"++++++++++++OOOOOOooOOOOOOooOOOOOOOOooOOOOOOooOOOOOO++++++++++++",
"++++++++++++OOOOOOooOOOOOOooOOOOOOOOooOOOOOOooOOOOOO++++++++++++",
"++**********$$$$&&ooOOOOOOooOOOOOOOOooOOOOOOooOOOOOO**********++",
"++**********$$$$&&ooOOOOOOooOOOOOOOOooOOOOOOooOOOOOO**********++",
"++##########$$&&&&ooOOOOOOooOOOOOOOOooOOOOOOooOOOOOO##########++",
"++##########$$&&&&ooOOOOOOooOOOOOOOOooOOOOOOooOOOOOO##########++",
"++##########OOOOOOooOOOOOOooOOOOOOOOooOOOOOOooOOOOOO##########++",
"++##########OOOOOOooOOOOOOooOOOOOOOOooOOOOOOooOOOOOO##########++",
"++##########OOOOOOooOOOOOOooOOOOOOOOooOOOOOOooOOOOOO##########++",
"++##########OOOOOOooOOOOOOooOOOOOOOOooOOOOOOooOOOOOO##########++",
"++##########OOOOOOooOOOOOOooOOOOOOOOooOOOOOOooOOOOOO##########++",
"++##########OOOOOOooOOOOOOooOOOOOOOOooOOOOOOooOOOOOO##########++",
"++##########@@@@@@oo@@@@@@oo@@@@@@@@oo@@@@@@oo@@@@@@##########++",
"++##########@@@@@@oo@@@@@@oo@@@@@@@@oo@@@@@@oo@@@@@@##########++",
"++##########@@@@@@oo@@@@@@oo@@@@@@@@oo@@@@@@oo@@@@@@##########++",
"++##########@@@@@@oo@@@@@@oo@@@@@@@@oo@@@@@@oo@@@@@@##########++",
"++##########@@@@@@oo@@@@@@oo@@@@@@@@oo@@@@@@oo@@@@@@##########++",
"++##########@@@@@@oo@@@@@@oo@@@@@@@@oo@@@@@@oo@@@@@@##########++"
};
