/* XPM */
static char *_308e79eab9e4889f2cfdb1e9ccdc335aEr9QtDRIkDQDkxt[] = {
/* columns rows colors chars-per-pixel */
"64 64 6 1",
"  c None",
". c black",
"X c #33703B",
"o c #37773F",
"O c #3E8948",
"+ c #62B76D",
/* pixels */
"                                                                ",
"                                                                ",
"                                                                ",
"                                                                ",
"                                                                ",
"                                                                ",
"                                                                ",
"                                                                ",
"                                                                ",
"                                                                ",
"                                                                ",
"                                                                ",
"                    ........................                    ",
"                    ........................                    ",
"                    ........................                    ",
"                    ........................                    ",
"            ........XXXXOOOOOOOOOOOOOOOOXXXX........            ",
"            ........XXXXOOOOOOOOOOOOOOOOXXXX........            ",
"            ........XXXXOOOOOOOOOOOOOOOOXXXX........            ",
"            ........XXXXOOOOOOOOOOOOOOOOXXXX........            ",
"        ....XXXXXXXXOOOOOOOOOOOOOOOOOOOOOOOOXXXXXXXX....        ",
"        ....XXXXXXXXOOOOOOOOOOOOOOOOOOOOOOOOXXXXXXXX....        ",
"        ....XXXXXXXXOOOOOOOOOOOOOOOOOOOOOOOOXXXXXXXX....        ",
"        ....XXXXXXXXOOOOOOOOOOOOOOOOOOOOOOOOXXXXXXXX....        ",
"    ....XXXXOOOOOOOOOOOOOOOOOOOOOOOOOOOOOOOOOOOOOOOOXXXX....    ",
"    ....XXXXOOOOOOOOOOOOOOOOOOOOOOOOOOOOOOOOOOOOOOOOXXXX....    ",
"    ....XXXXOOOOOOOOOOOOOOOOOOOOOOOOOOOOOOOOOOOOOOOOXXXX....    ",
"    ....XXXXOOOOOOOOOOOOOOOOOOOOOOOOOOOOOOOOOOOOOOOOXXXX....    ",
"....XXXXOOOOOOOO++++++++OOOOOOOOOOOOOOOOOOOOOOOOOOOOOOOOXXXX....",
"....XXXXOOOOOOOO++++++++OOOOOOOOOOOOOOOOOOOOOOOOOOOOOOOOXXXX....",
"....XXXXOOOOOOOO++++++++OOOOOOOOOOOOOOOOOOOOOOOOOOOOOOOOXXXX....",
"....XXXXOOOOOOOO++++++++OOOOOOOOOOOOOOOOOOOOOOOOOOOOOOOOXXXX....",
"....OOOOOOOO++++++++OOOOOOOOOOOOOOOOOOOOOOOO........OOOOOOOO....",
"....OOOOOOOO++++++++OOOOOOOOOOOOOOOOOOOOOOOO........OOOOOOOO....",
"....OOOOOOOO++++++++OOOOOOOOOOOOOOOOOOOOOOOO........OOOOOOOO....",
"....OOOOOOOO++++++++OOOOOOOOOOOOOOOOOOOOOOOO........OOOOOOOO....",
"....OOOOOOOOOOOOoooooooo........oooooooooooo........OOOOOOOO....",
"....OOOOOOOOOOOOoooooooo........oooooooooooo........OOOOOOOO....",
"....OOOOOOOOOOOOoooooooo........oooooooooooo........OOOOOOOO....",
"....OOOOOOOOOOOOoooooooo........oooooooooooo........OOOOOOOO....",
"....OOOOoooooooooooooooo........ooooooooooooooooooooooooOOOO....",
"....OOOOoooooooooooooooo........ooooooooooooooooooooooooOOOO....",
"....OOOOoooooooooooooooo........ooooooooooooooooooooooooOOOO....",
"....OOOOoooooooooooooooo........ooooooooooooooooooooooooOOOO....",
"....XXXXooooooooooooooooooooooooooooooooooooooooooooooooXXXX....",
"....XXXXooooooooooooooooooooooooooooooooooooooooooooooooXXXX....",
"....XXXXooooooooooooooooooooooooooooooooooooooooooooooooXXXX....",
"....XXXXooooooooooooooooooooooooooooooooooooooooooooooooXXXX....",
"    ....XXXXXXXXooooooooooooooooooooooooooooooooXXXXXXXX....    ",
"    ....XXXXXXXXooooooooooooooooooooooooooooooooXXXXXXXX....    ",
"    ....XXXXXXXXooooooooooooooooooooooooooooooooXXXXXXXX....    ",
"    ....XXXXXXXXooooooooooooooooooooooooooooooooXXXXXXXX....    ",
"        ........XXXXooooooooooooooooooooooooXXXX........        ",
"        ........XXXXooooooooooooooooooooooooXXXX........        ",
"        ........XXXXooooooooooooooooooooooooXXXX........        ",
"        ........XXXXooooooooooooooooooooooooXXXX........        ",
"                ................................                ",
"                ................................                ",
"                ................................                ",
"                ................................                ",
"                                                                ",
"                                                                ",
"                                                                ",
"                                                                "
};
