/* XPM */
static char *_2cb1e904e64471bd65de3774e61b85fFBOGoc0CKhJnpUBv[] = {
/* columns rows colors chars-per-pixel */
"64 64 6 1 ",
"  c None",
". c black",
"X c #33703B",
"o c #37773F",
"O c #3E8948",
"+ c #62B76D",
/* pixels */
"                                                                ",
"                                                                ",
"                                                                ",
"                                                                ",
"                                                                ",
"                                                                ",
"                                                                ",
"                                                                ",
"                                                                ",
"                                                                ",
"                                                                ",
"                                                                ",
"                                                                ",
"                                                                ",
"                                                                ",
"                                                                ",
"                                                                ",
"                                                                ",
"                                                                ",
"                                                                ",
"                    ........................                    ",
"                    ........................                    ",
"                    ........................                    ",
"                    ........................                    ",
"            ........XXXXXXXXOOOOOOOOXXXXXXXX........            ",
"            ........XXXXXXXXOOOOOOOOXXXXXXXX........            ",
"            ........XXXXXXXXOOOOOOOOXXXXXXXX........            ",
"            ........XXXXXXXXOOOOOOOOXXXXXXXX........            ",
"        ....XXXXXXXXOOOOOOOOOOOOOOOOOOOOOOOOXXXXXXXX....        ",
"        ....XXXXXXXXOOOOOOOOOOOOOOOOOOOOOOOOXXXXXXXX....        ",
"        ....XXXXXXXXOOOOOOOOOOOOOOOOOOOOOOOOXXXXXXXX....        ",
"        ....XXXXXXXXOOOOOOOOOOOOOOOOOOOOOOOOXXXXXXXX....        ",
"    ....XXXXOOOO++++++++OOOOOOOOOOOOOOOOOOOOOOOOOOOOXXXX....    ",
"    ....XXXXOOOO++++++++OOOOOOOOOOOOOOOOOOOOOOOOOOOOXXXX....    ",
"    ....XXXXOOOO++++++++OOOOOOOOOOOOOOOOOOOOOOOOOOOOXXXX....    ",
"    ....XXXXOOOO++++++++OOOOOOOOOOOOOOOOOOOOOOOOOOOOXXXX....    ",
"....XXXXOOOO++++++++oooooooooooooooooooooooo........OOOOXXXX....",
"....XXXXOOOO++++++++oooooooooooooooooooooooo........OOOOXXXX....",
"....XXXXOOOO++++++++oooooooooooooooooooooooo........OOOOXXXX....",
"....XXXXOOOO++++++++oooooooooooooooooooooooo........OOOOXXXX....",
"....OOOOoooooooooooooooo........oooooooooooo........ooooOOOO....",
"....OOOOoooooooooooooooo........oooooooooooo........ooooOOOO....",
"....OOOOoooooooooooooooo........oooooooooooo........ooooOOOO....",
"....OOOOoooooooooooooooo........oooooooooooo........ooooOOOO....",
"....XXXXoooooooooooooooo........ooooooooooooooooooooooooXXXX....",
"....XXXXoooooooooooooooo........ooooooooooooooooooooooooXXXX....",
"....XXXXoooooooooooooooo........ooooooooooooooooooooooooXXXX....",
"....XXXXoooooooooooooooo........ooooooooooooooooooooooooXXXX....",
"    ....XXXXXXXXooooooooooooooooooooooooooooooooXXXXXXXX....    ",
"    ....XXXXXXXXooooooooooooooooooooooooooooooooXXXXXXXX....    ",
"    ....XXXXXXXXooooooooooooooooooooooooooooooooXXXXXXXX....    ",
"    ....XXXXXXXXooooooooooooooooooooooooooooooooXXXXXXXX....    ",
"        ........XXXXooooooooooooooooooooooooXXXX........        ",
"        ........XXXXooooooooooooooooooooooooXXXX........        ",
"        ........XXXXooooooooooooooooooooooooXXXX........        ",
"        ........XXXXooooooooooooooooooooooooXXXX........        ",
"                ................................                ",
"                ................................                ",
"                ................................                ",
"                ................................                ",
"                                                                ";
"                                                                ";
"                                                                ";
"                                                                ";
};
