/* XPM */
static char *_190a21658814ad99ba3511eedd27c180ot6sKfrBFgA82Xa[] = {
/* columns rows colors chars-per-pixel */
"64 64 4 1 ",
"  c #353E50",
". c #434F65",
"X c #5A6988",
"o c #6F7F9F",
/* pixels */
"....                            ....                            ",
"....                            ....                            ",
"....                            ....                            ",
"....                            ....                            ",
"....oooooooooooo    oooooooooooo....    oooooooooooooooooooooooo",
"....oooooooooooo    oooooooooooo....    oooooooooooooooooooooooo",
"....oooooooooooo    oooooooooooo....    oooooooooooooooooooooooo",
"....oooooooooooo    oooooooooooo....    oooooooooooooooooooooooo",
"....ooooXXXXXXXXXXXX    XXXXoooo....    XXXXXXXXXXXXXXXXXXXXoooo",
"....ooooXXXXXXXXXXXX    XXXXoooo....    XXXXXXXXXXXXXXXXXXXXoooo",
"....ooooXXXXXXXXXXXX    XXXXoooo....    XXXXXXXXXXXXXXXXXXXXoooo",
"....ooooXXXXXXXXXXXX    XXXXoooo....    XXXXXXXXXXXXXXXXXXXXoooo",
"                ....                            ....            ",
"                ....                            ....            ",
"                ....                            ....            ",
"                ....                            ....            ",
"oooooooooooooooo....                    oooooooo....oooooooooooo",
"oooooooooooooooo....                    oooooooo....oooooooooooo",
"oooooooooooooooo....                    oooooooo....oooooooooooo",
"oooooooooooooooo....                    oooooooo....oooooooooooo",
"XXXXXXXXXXXXoooo....ooooXXXXXXXXXXXX    XXXXoooo....ooooXXXXXXXX",
"XXXXXXXXXXXXoooo....ooooXXXXXXXXXXXX    XXXXoooo....ooooXXXXXXXX",
"XXXXXXXXXXXXoooo....ooooXXXXXXXXXXXX    XXXXoooo....ooooXXXXXXXX",
"XXXXXXXXXXXXoooo....ooooXXXXXXXXXXXX    XXXXoooo....ooooXXXXXXXX",
"XXXXXXXXXXXXXXXX........XXXXXXXXXXXXXXXX    XXXX....XXXXXXXXXXXX",
"XXXXXXXXXXXXXXXX........XXXXXXXXXXXXXXXX    XXXX....XXXXXXXXXXXX",
"XXXXXXXXXXXXXXXX........XXXXXXXXXXXXXXXX    XXXX....XXXXXXXXXXXX",
"XXXXXXXXXXXXXXXX........XXXXXXXXXXXXXXXX    XXXX....XXXXXXXXXXXX",
"....                            ....                            ",
"....                            ....                            ",
"....                            ....                            ",
"....                            ....                            ",
"....oooooooooooooooooooooooo    ....    oooooooooooooooooooooooo",
"....oooooooooooooooooooooooo    ....    oooooooooooooooooooooooo",
"....oooooooooooooooooooooooo    ....    oooooooooooooooooooooooo",
"....oooooooooooooooooooooooo    ....    oooooooooooooooooooooooo",
"....ooooXXXXXXXXXXXXXXXXXXXXoooo            XXXXXXXXXXXXXXXXoooo",
"....ooooXXXXXXXXXXXXXXXXXXXXoooo            XXXXXXXXXXXXXXXXoooo",
"....ooooXXXXXXXXXXXXXXXXXXXXoooo            XXXXXXXXXXXXXXXXoooo",
"....ooooXXXXXXXXXXXXXXXXXXXXoooo            XXXXXXXXXXXXXXXXoooo",
"....XXXXXXXX....XXXXXXXXXXXX    ....            XXXXXXXXXXXXXXXX",
"....XXXXXXXX....XXXXXXXXXXXX    ....            XXXXXXXXXXXXXXXX",
"....XXXXXXXX....XXXXXXXXXXXX    ....            XXXXXXXXXXXXXXXX",
"....XXXXXXXX....XXXXXXXXXXXX    ....            XXXXXXXXXXXXXXXX",
"                ....                            ....            ",
"                ....                            ....            ",
"                ....                            ....            ",
"                ....                            ....            ",
"oooooooooooooooo    oooo        oooooooo    oooo....oooooooooooo",
"oooooooooooooooo    oooo        oooooooo    oooo....oooooooooooo",
"oooooooooooooooo    oooo        oooooooo    oooo....oooooooooooo",
"oooooooooooooooo    oooo        oooooooo    oooo....oooooooooooo",
"XXXXXXXXXXXXoooo....oooo    XXXX    XXXXXXXXoooo....ooooXXXXXXXX",
"XXXXXXXXXXXXoooo....oooo    XXXX    XXXXXXXXoooo....ooooXXXXXXXX",
"XXXXXXXXXXXXoooo....oooo    XXXX    XXXXXXXXoooo....ooooXXXXXXXX",
"XXXXXXXXXXXXoooo....oooo    XXXX    XXXXXXXXoooo....ooooXXXXXXXX",
"XXXXXXXXXXXXXXXX....    XXXXXXXX    XXXXXXXXXXXX....XXXXXXXXXXXX",
"XXXXXXXXXXXXXXXX....    XXXXXXXX    XXXXXXXXXXXX....XXXXXXXXXXXX",
"XXXXXXXXXXXXXXXX....    XXXXXXXX    XXXXXXXXXXXX....XXXXXXXXXXXX",
"XXXXXXXXXXXXXXXX....    XXXXXXXX    XXXXXXXXXXXX....XXXXXXXXXXXX",
"....................    ........    ............................",
"....................    ........    ............................",
"....................    ........    ............................",
"....................    ........    ............................",
};
