/* XPM */
static char *aff6706b020f4511c43c2059aee09ac9y4RFRg9WOpCzc9ns[] = {
/* columns rows colors chars-per-pixel */
"64 64 4 1 ",
"  c #353E50",
". c #434F65",
"X c #5A6988",
"o c #6F7F9F",
/* pixels */
"                            ....                                ",
"                            ....                                ",
"                            ....                                ",
"                            ....                                ",
"oooooooooooooooooooooooooooo....oooooooooooooooooooooooooooooooo",
"oooooooooooooooooooooooooooo....oooooooooooooooooooooooooooooooo",
"oooooooooooooooooooooooooooo....oooooooooooooooooooooooooooooooo",
"oooooooooooooooooooooooooooo....oooooooooooooooooooooooooooooooo",
"ooooXXXXXXXXXXXXXXXXXXXXoooo....ooooXXXXXXXXXXXXXXXXXXXXXXXXoooo",
"ooooXXXXXXXXXXXXXXXXXXXXoooo....ooooXXXXXXXXXXXXXXXXXXXXXXXXoooo",
"ooooXXXXXXXXXXXXXXXXXXXXoooo....ooooXXXXXXXXXXXXXXXXXXXXXXXXoooo",
"ooooXXXXXXXXXXXXXXXXXXXXoooo....ooooXXXXXXXXXXXXXXXXXXXXXXXXoooo",
"                ....                            ....            ",
"                ....                            ....            ",
"                ....                            ....            ",
"                ....                            ....            ",
"oooooooooooooooo....oooooooooooooooooooooooooooo....oooooooooooo",
"oooooooooooooooo....oooooooooooooooooooooooooooo....oooooooooooo",
"oooooooooooooooo....oooooooooooooooooooooooooooo....oooooooooooo",
"oooooooooooooooo....oooooooooooooooooooooooooooo....oooooooooooo",
"ooooXXXXXXXXoooo....ooooXXXXXXXXXXXXXXXXXXXXoooo....ooooXXXXXXXX",
"ooooXXXXXXXXoooo....ooooXXXXXXXXXXXXXXXXXXXXoooo....ooooXXXXXXXX",
"ooooXXXXXXXXoooo....ooooXXXXXXXXXXXXXXXXXXXXoooo....ooooXXXXXXXX",
"ooooXXXXXXXXoooo....ooooXXXXXXXXXXXXXXXXXXXXoooo....ooooXXXXXXXX",
"XXXXXXXXXXXXXXXX....XXXXXXXXXXXXXXXXXXXXXXXXXXXX....XXXXXXXXXXXX",
"XXXXXXXXXXXXXXXX....XXXXXXXXXXXXXXXXXXXXXXXXXXXX....XXXXXXXXXXXX",
"XXXXXXXXXXXXXXXX....XXXXXXXXXXXXXXXXXXXXXXXXXXXX....XXXXXXXXXXXX",
"XXXXXXXXXXXXXXXX....XXXXXXXXXXXXXXXXXXXXXXXXXXXX....XXXXXXXXXXXX",
"                            ....                                ",
"                            ....                                ",
"                            ....                                ",
"                            ....                                ",
"oooooooooooooooooooooooooooo....oooooooooooooooooooooooooooooooo",
"oooooooooooooooooooooooooooo....oooooooooooooooooooooooooooooooo",
"oooooooooooooooooooooooooooo....oooooooooooooooooooooooooooooooo",
"oooooooooooooooooooooooooooo....oooooooooooooooooooooooooooooooo",
"ooooXXXXXXXXXXXXXXXXXXXXoooo....ooooXXXXXXXXXXXXXXXXXXXXXXXXoooo",
"ooooXXXXXXXXXXXXXXXXXXXXoooo....ooooXXXXXXXXXXXXXXXXXXXXXXXXoooo",
"ooooXXXXXXXXXXXXXXXXXXXXoooo....ooooXXXXXXXXXXXXXXXXXXXXXXXXoooo",
"ooooXXXXXXXXXXXXXXXXXXXXoooo....ooooXXXXXXXXXXXXXXXXXXXXXXXXoooo",
"XXXXXXXXXXXXXXXXXXXXXXXXXXXX....XXXXXXXXXXXXXXXXXXXXXXXXXXXXXXXX",
"XXXXXXXXXXXXXXXXXXXXXXXXXXXX....XXXXXXXXXXXXXXXXXXXXXXXXXXXXXXXX",
"XXXXXXXXXXXXXXXXXXXXXXXXXXXX....XXXXXXXXXXXXXXXXXXXXXXXXXXXXXXXX",
"XXXXXXXXXXXXXXXXXXXXXXXXXXXX....XXXXXXXXXXXXXXXXXXXXXXXXXXXXXXXX",
"                ....                            ....            ",
"                ....                            ....            ",
"                ....                            ....            ",
"                ....                            ....            ",
"oooooooooooooooooooooooooooo....oooooooooooooooooooooooooooooooo",
"oooooooooooooooooooooooooooo....oooooooooooooooooooooooooooooooo",
"oooooooooooooooooooooooooooo....oooooooooooooooooooooooooooooooo",
"oooooooooooooooooooooooooooo....oooooooooooooooooooooooooooooooo",
"ooooXXXXXXXXoooo....ooooXXXXXXXXXXXXXXXXXXXXoooo....ooooXXXXXXXX",
"ooooXXXXXXXXoooo....ooooXXXXXXXXXXXXXXXXXXXXoooo....ooooXXXXXXXX",
"ooooXXXXXXXXoooo....ooooXXXXXXXXXXXXXXXXXXXXoooo....ooooXXXXXXXX",
"ooooXXXXXXXXoooo....ooooXXXXXXXXXXXXXXXXXXXXoooo....ooooXXXXXXXX",
"XXXXXXXXXXXXXXXX....XXXXXXXXXXXXXXXXXXXXXXXXXXXX....XXXXXXXXXXXX",
"XXXXXXXXXXXXXXXX....XXXXXXXXXXXXXXXXXXXXXXXXXXXX....XXXXXXXXXXXX",
"XXXXXXXXXXXXXXXX....XXXXXXXXXXXXXXXXXXXXXXXXXXXX....XXXXXXXXXXXX",
"XXXXXXXXXXXXXXXX....XXXXXXXXXXXXXXXXXXXXXXXXXXXX....XXXXXXXXXXXX",
"................................................................",
"................................................................",
"................................................................",
"................................................................",
};
